<svg xmlns="http://www.w3.org/2000/svg" width="193" height="67" viewBox="0 0 193 67">
  <g fill="none" fill-rule="evenodd">
    <path fill="#000" fill-rule="nonzero" d="M50.42 36L50.42 16.632 57.008 16.632 57.008 12.492 38.936 12.492 38.936 16.632 45.488 16.632 45.488 36 50.42 36zM75.296 12.492L75.296 16.632 65.684 16.632 65.684 21.78 73.856 21.78 73.856 25.92 65.684 25.92 65.684 31.86 75.656 31.86 75.656 36 60.752 36 60.752 12.492 75.296 12.492zM124.28 12.492L128.204 23.292 128.442 23.998C128.599333 24.4753333 128.754 24.966 128.906 25.47 129.134 26.226 129.368 26.976 129.608 27.72L129.608 27.72 129.752 27.72 130.1075 26.5995 130.1075 26.5995 130.454 25.47C130.682 24.714 130.916 23.988 131.156 23.292L131.156 23.292 134.972 12.492 140.408 12.492 140.408 36 135.908 36 135.908 26.676 135.911 26.2965C135.921 25.6515 135.956 24.944 136.016 24.174 136.088 23.25 136.172 22.32 136.268 21.384 136.364 20.448 136.448 19.608 136.52 18.864L136.52 18.864 136.376 18.864 134.468 24.372 130.976 33.912 128.168 33.912 124.676 24.372 122.804 18.864 122.66 18.864 122.697 19.244C122.760333 19.8906667 122.832 20.604 122.912 21.384 123.008 22.32 123.092 23.25 123.164 24.174 123.236 25.098 123.272 25.932 123.272 26.676L123.272 26.676 123.272 36 118.844 36 118.844 12.492 124.28 12.492zM10.936 66.432C12.76 66.432 14.326 66.102 15.634 65.442 16.942 64.782 17.938 63.906 18.622 62.814 19.306 61.722 19.648 60.528 19.648 59.232 19.648 58.128 19.45 57.174 19.054 56.37 18.658 55.566 18.112 54.876 17.416 54.3 16.72 53.724 15.892 53.244 14.932 52.86L14.932 52.86 11.908 51.636C11.236 51.348 10.618 51.078 10.054 50.826 9.49 50.574 9.052 50.28 8.74 49.944 8.428 49.608 8.272 49.176 8.272 48.648 8.272 47.928 8.566 47.364 9.154 46.956 9.742 46.548 10.516 46.344 11.476 46.344 12.436 46.344 13.312 46.506 14.104 46.83 14.896 47.154 15.676 47.628 16.444 48.252L16.444 48.252 18.928 45.12C17.944 44.136 16.798 43.38 15.49 42.852 14.182 42.324 12.844 42.06 11.476 42.06 9.892 42.06 8.482 42.372 7.246 42.996 6.01 43.62 5.038 44.448 4.33 45.48 3.622 46.512 3.268 47.664 3.268 48.936 3.268 50.088 3.496 51.078 3.952 51.906 4.408 52.734 5.002 53.424 5.734 53.976 6.466 54.528 7.228 54.972 8.02 55.308L8.02 55.308 11.116 56.64C11.812 56.928 12.418 57.198 12.934 57.45 13.45 57.702 13.858 57.99 14.158 58.314 14.458 58.638 14.608 59.076 14.608 59.628 14.608 60.42 14.308 61.038 13.708 61.482 13.108 61.926 12.22 62.148 11.044 62.148 10.036 62.148 9.01 61.92 7.966 61.464 6.922 61.008 5.98 60.396 5.14 59.628L5.14 59.628 2.296 63.012C3.472 64.116 4.822 64.962 6.346 65.55 7.87 66.138 9.4 66.432 10.936 66.432zM33.4 66.432C34.912 66.432 36.304 66.138 37.576 65.55 38.848 64.962 39.964 64.104 40.924 62.976L40.924 62.976 38.296 59.88C37.696 60.528 37.006 61.068 36.226 61.5 35.446 61.932 34.564 62.148 33.58 62.148 32.38 62.148 31.33 61.836 30.43 61.212 29.53 60.588 28.84 59.682 28.36 58.494 27.88 57.306 27.64 55.872 27.64 54.192 27.64 52.56 27.904 51.162 28.432 49.998 28.96 48.834 29.68 47.934 30.592 47.298 31.504 46.662 32.524 46.344 33.652 46.344 34.54 46.344 35.32 46.524 35.992 46.884 36.664 47.244 37.3 47.7 37.9 48.252L37.9 48.252 40.528 45.084C39.76 44.292 38.782 43.59 37.594 42.978 36.406 42.366 35.056 42.06 33.544 42.06 32.08 42.06 30.682 42.336 29.35 42.888 28.018 43.44 26.842 44.244 25.822 45.3 24.802 46.356 24.004 47.646 23.428 49.17 22.852 50.694 22.564 52.428 22.564 54.372 22.564 56.988 23.056 59.196 24.04 60.996 25.024 62.796 26.332 64.152 27.964 65.064 29.596 65.976 31.408 66.432 33.4 66.432zM49.528 66L49.528 57.288 52.671 57.288 57.34 66 62.884 66 57.46 56.462 57.6813609 56.3688284C58.7834438 55.8830059 59.692213 55.1823905 60.4076686 54.2669822L60.598 54.012C61.402 52.884 61.804 51.444 61.804 49.692 61.804 47.868 61.402 46.434 60.598 45.39 59.794 44.346 58.72 43.602 57.376 43.158 56.032 42.714 54.532 42.492 52.876 42.492L52.876 42.492 44.596 42.492 44.596 66 49.528 66zM52.444 53.364L49.528 53.364 49.528 46.416 52.444 46.416C53.908 46.416 55.03 46.656 55.81 47.136 56.59 47.616 56.98 48.468 56.98 49.692 56.98 50.916 56.59 51.834 55.81 52.446 55.03 53.058 53.908 53.364 52.444 53.364L52.444 53.364zM68.428 66L70.017 60.133 77.404 60.133 78.976 66 84.196 66 76.744 42.492 70.876 42.492 63.388 66 68.428 66zM76.382 56.317L71.051 56.317 71.704 53.904C71.9728 52.944 72.23776 51.9456 72.49888 50.9088L72.694 50.124C73.018 48.804 73.324 47.52 73.612 46.272L73.612 46.272 73.756 46.272C74.092 47.52 74.422 48.804 74.746 50.124 75.07 51.444 75.4 52.704 75.736 53.904L75.736 53.904 76.382 56.317zM91.288 66L91.288 56.676C91.288 55.932 91.252 55.098 91.18 54.174 91.108 53.25 91.024 52.32 90.928 51.384 90.832 50.448 90.748 49.608 90.676 48.864L90.676 48.864 90.82 48.864 92.692 54.372 96.184 63.912 98.992 63.912 102.484 54.372 104.392 48.864 104.536 48.864C104.464 49.608 104.38 50.448 104.284 51.384 104.188 52.32 104.104 53.25 104.032 54.174 103.96 55.098 103.924 55.932 103.924 56.676L103.924 56.676 103.924 66 108.424 66 108.424 42.492 102.988 42.492 99.172 53.292C98.932 53.988 98.698 54.714 98.47 55.47 98.242 56.226 98.008 56.976 97.768 57.72L97.768 57.72 97.624 57.72C97.384 56.976 97.15 56.226 96.922 55.47 96.694 54.714 96.46 53.988 96.22 53.292L96.22 53.292 92.296 42.492 86.86 42.492 86.86 66 91.288 66zM122.644 66C124.348 66 125.884 65.754 127.252 65.262 128.62 64.77 129.712 64.014 130.528 62.994 131.344 61.974 131.752 60.672 131.752 59.088 131.752 57.504 131.338 56.256 130.51 55.344 129.682 54.432 128.644 53.832 127.396 53.544L127.396 53.544 127.396 53.4C128.38 53.04 129.154 52.368 129.718 51.384 130.282 50.4 130.564 49.38 130.564 48.324 130.564 46.836 130.186 45.672 129.43 44.832 128.674 43.992 127.648 43.392 126.352 43.032 125.056 42.672 123.604 42.492 121.996 42.492L121.996 42.492 114.112 42.492 114.112 66 122.644 66zM121.708 51.996L119.044 51.996 119.044 46.308 121.744 46.308C123.088 46.308 124.09 46.518 124.75 46.938 125.41 47.358 125.74 48.06 125.74 49.044 125.74 49.956 125.416 50.676 124.768 51.204 124.12 51.732 123.1 51.996 121.708 51.996L121.708 51.996zM122.212 62.184L119.044 62.184 119.044 55.668 122.212 55.668C123.772 55.668 124.948 55.914 125.74 56.406 126.532 56.898 126.928 57.684 126.928 58.764 126.928 59.916 126.526 60.774 125.722 61.338 124.918 61.902 123.748 62.184 122.212 62.184L122.212 62.184zM150.184 66L150.184 61.86 140.752 61.86 140.752 42.492 135.82 42.492 135.82 66 150.184 66zM169.192 66L169.192 61.86 159.22 61.86 159.22 55.92 167.392 55.92 167.392 51.78 159.22 51.78 159.22 46.632 168.832 46.632 168.832 42.492 154.288 42.492 154.288 66 169.192 66zM178.84 66L178.84 57.288 181.983 57.288 186.652 66 192.196 66 186.772 56.462 186.993361 56.3688284C188.095444 55.8830059 189.004213 55.1823905 189.719669 54.2669822L189.91 54.012C190.714 52.884 191.116 51.444 191.116 49.692 191.116 47.868 190.714 46.434 189.91 45.39 189.106 44.346 188.032 43.602 186.688 43.158 185.344 42.714 183.844 42.492 182.188 42.492L182.188 42.492 173.908 42.492 173.908 66 178.84 66zM181.756 53.364L178.84 53.364 178.84 46.416 181.756 46.416C183.22 46.416 184.342 46.656 185.122 47.136 185.902 47.616 186.292 48.468 186.292 49.692 186.292 50.916 185.902 51.834 185.122 52.446 184.342 53.058 183.22 53.364 181.756 53.364L181.756 53.364z"/>
    <path fill="#111" fill-rule="nonzero" d="M96.7858861,0 L96.0352847,1.29911788 L94.3175621,4.28708901 L94.0721732,4.72012831 L94.3175621,5.1531676 L106.211708,25.7514034 L95.2846832,25.7514034 L94.7794707,25.7514034 L94.5340818,26.1844427 L92.8163593,29.1868484 L92.0657578,30.4715317 L93.5525261,30.4715317 L112.894948,30.4859663 L114.381716,30.4715317 L113.631115,29.1724138 L97.5364876,1.29911788 L96.7858861,0 Z M93.59583,5.52846832 L92.8452285,6.82758621 L76.7506014,34.7153168 L76,36 L77.5012029,36 L80.9510826,36 L81.4562951,36 L81.701684,35.5669607 L93.59583,14.9687249 L99.0665597,24.4234162 L99.297514,24.8564555 L99.8027265,24.8564555 L103.252606,24.8564555 L104.753809,24.8564555 L104.003208,23.5717723 L94.3464314,6.82758621 L93.59583,5.52846832 Z M93.5380914,16.6720128 L92.8019246,17.9711307 L83.1307137,34.7008821 L82.3801123,36 L83.8813152,36 L116.085004,36 L117.571772,36 L116.821171,34.7008821 L115.103448,31.712911 L114.843625,31.2798717 L114.352847,31.2798717 L90.5645549,31.2798717 L96.02085,21.8251804 L96.266239,21.3921411 L96.02085,20.9591018 L94.2886929,17.9711307 L93.5380914,16.6720128 Z"/>
  </g>
</svg>
